<svg xmlns="http://www.w3.org/2000/svg" xmlns:xlink="http://www.w3.org/1999/xlink" width="24" height="24" viewBox="0 0 24 24">
    <defs>
        <path id="prefix__a" d="M12 3c2.445 0 2.75.01 3.71.054.959.044 1.613.196 2.185.419.6.226 1.145.58 1.595 1.038.457.449.812.993 1.038 1.593.222.573.374 1.228.418 2.186.037.812.05 1.156.053 2.723v1.974c-.003 1.567-.016 1.911-.053 2.723-.044.959-.196 1.613-.419 2.185-.23.592-.538 1.095-1.038 1.595-.449.457-.993.812-1.594 1.038-.572.222-1.226.374-2.184.418-.813.037-1.157.05-2.724.053h-1.974c-1.567-.003-1.911-.016-2.723-.053-.958-.044-1.613-.196-2.185-.419-.592-.23-1.095-.538-1.595-1.038-.457-.449-.812-.993-1.037-1.594-.223-.572-.375-1.226-.419-2.184C3.01 14.75 3 14.444 3 12s.01-2.75.054-3.71c.044-.958.196-1.613.419-2.185.226-.6.58-1.145 1.038-1.595.449-.457.993-.812 1.593-1.037.573-.223 1.228-.375 2.186-.419C9.25 3.01 9.556 3 12 3zm.778 1.622h-1.556c-1.703.002-2.024.014-2.859.052-.877.04-1.354.186-1.671.31-.42.163-.72.358-1.035.673-.314.315-.51.615-.673 1.035-.123.317-.27.793-.31 1.671-.038.835-.05 1.156-.052 2.859v1.556c.002 1.703.014 2.024.052 2.859.04.878.186 1.354.31 1.671.144.391.374.745.673 1.035.29.299.644.529 1.035.673.317.124.793.27 1.671.31.835.038 1.156.05 2.858.052h1.558c1.702-.002 2.023-.014 2.858-.052.878-.04 1.354-.186 1.671-.31.42-.163.72-.358 1.035-.673.299-.29.529-.644.673-1.035.124-.317.27-.793.31-1.671.038-.835.05-1.156.052-2.859v-1.556c-.002-1.703-.014-2.024-.052-2.859-.04-.877-.186-1.354-.31-1.671-.163-.42-.358-.72-.673-1.035-.315-.314-.615-.51-1.035-.673-.317-.123-.793-.27-1.671-.31-.835-.038-1.156-.05-2.859-.052zM12 7.374c2.555 0 4.626 2.071 4.626 4.626S14.555 16.626 12 16.626 7.374 14.555 7.374 12 9.445 7.374 12 7.374zm0 1.623c-1.073 0-2.064.572-2.6 1.502-.537.929-.537 2.073 0 3.002.536.93 1.527 1.502 2.6 1.502 1.659 0 3.003-1.344 3.003-3.003S13.659 8.997 12 8.997zm4.878-2.8c.604 0 1.094.49 1.094 1.093 0 .604-.49 1.093-1.094 1.093-.603 0-1.093-.49-1.093-1.093 0-.604.49-1.093 1.093-1.093z"/>
    </defs>
    <g fill="none" fill-rule="evenodd">
        <path d="M0 0H24V24H0z"/>
        <mask id="prefix__b" fill="#fff">
            <use xlink:href="#prefix__a"/>
        </mask>
        <use fill="#000" fill-rule="nonzero" xlink:href="#prefix__a"/>
        <g fill="#000" fill-rule="nonzero" mask="url(#prefix__b)">
            <path d="M0 0H24V24H0z"/>
        </g>
    </g>
</svg>
