<?xml version="1.0" encoding="UTF-8"?>
<svg width="24px" height="24px" viewBox="0 0 24 24" version="1.1" xmlns="http://www.w3.org/2000/svg" xmlns:xlink="http://www.w3.org/1999/xlink">
    <title>F6A780AD-DCAF-416B-8291-3AE69A950850</title>
    <defs>
        <path d="M12.0033333,4 L11.9933333,4 C11.9933333,4 7.37666667,4 4.29666667,4.22333333 C3.4665106,4.23152172 2.67373967,4.56973866 2.09333333,5.16333333 C1.43333333,5.83666667 1.22,7.36333333 1.22,7.36333333 C1.08304306,8.55413529 1.00960572,9.75138654 1,10.95 L1,12.6333333 C1.00960572,13.8319468 1.08304306,15.029198 1.22,16.22 C1.22,16.22 1.43333333,17.75 2.09333333,18.42 C2.93,19.3033333 4.03,19.2766667 4.52,19.37 C6.28,19.54 12,19.5933333 12,19.5933333 L12,19.5933333 C12,19.5933333 16.6233333,19.5833333 19.7,19.36 C20.5311694,19.3519978 21.3250455,19.013821 21.9066667,18.42 C22.5633333,17.75 22.78,16.22 22.78,16.22 C22.9169569,15.029198 22.9903943,13.8319468 23,12.6333333 L23,10.95 C22.9903943,9.75138654 22.9169569,8.55413529 22.78,7.36333333 C22.78,7.36333333 22.5633333,5.83666667 21.9066667,5.16333333 C21.3250455,4.56951231 20.5311694,4.2313355 19.7,4.22333333 C16.6233333,4 12.0033333,4 12.0033333,4 M9.70333333,8.62333333 L15.54,11.68 L9.70333333,14.87 L9.70333333,8.62333333 Z" id="path-1"></path>
    </defs>
    <g id="Symbols" stroke="none" stroke-width="1" fill="none" fill-rule="evenodd">
        <g id="Common-/-Footer" transform="translate(-124.000000, -60.000000)">
            <g id="SNS-+-Info" transform="translate(70.000000, 60.000000)">
                <g id="SNS">
                    <g id="Icon-/-24-/-youtube" transform="translate(54.000000, 0.000000)">
                        <rect id="container" x="0" y="0" width="24" height="24"></rect>
                        <mask id="mask-2" fill="white">
                            <use xlink:href="#path-1"></use>
                        </mask>
                        <use id="Mask" fill="#404040" xlink:href="#path-1"></use>
                        <g id="✱-/-Color-/-Grayscale-/-999-Black" mask="url(#mask-2)" fill="#000000" fill-rule="nonzero">
                            <rect id="Color" x="0" y="0" width="24" height="24"></rect>
                        </g>
                    </g>
                </g>
            </g>
        </g>
    </g>
</svg>