<?xml version="1.0" encoding="UTF-8"?>
<svg width="24px" height="24px" viewBox="0 0 24 24" version="1.1" xmlns="http://www.w3.org/2000/svg" xmlns:xlink="http://www.w3.org/1999/xlink">
    <title>4A2287EF-4C7D-4C36-A5D5-1FF9A39B275C</title>
    <defs>
        <path d="M18.4906659,10.3088699 C18.0120929,10.3088699 17.6241328,10.6968331 17.6241328,11.1754061 C17.6241328,11.6539791 18.0120929,12.0419392 18.4906659,12.0419392 C18.9692389,12.0419392 19.3572021,11.6539791 19.3572021,11.1754061 C19.3578207,10.9453972 19.2667252,10.7246297 19.1040838,10.5619883 C18.9414423,10.3993468 18.7206748,10.3082513 18.4906659,10.3088699 L18.4906659,10.3088699 Z M13.3047988,10.3088715 C12.8262258,10.3088715 12.4382658,10.6968331 12.4382658,11.1754061 C12.4382658,11.6539791 12.8262258,12.0419392 13.3047988,12.0419392 C13.7833718,12.0419392 14.1713335,11.6539791 14.1713335,11.1754061 C14.1717754,10.9454516 14.0806226,10.7247878 13.9180199,10.562185 C13.7554172,10.3995823 13.5347533,10.3084296 13.3047988,10.3088715 L13.3047988,10.3088715 Z M19.5271728,3 L4.47282725,3 C2.54879118,3.00734979 0.994497022,4.57208547 1.00001464,6.49612761 L1.00001464,14.7848496 C0.994867876,16.7081968 2.54948214,18.2717628 4.47282725,18.2776444 L9.65869433,18.2776444 L11.4284215,21.1638661 C11.4284215,21.1638661 11.4484184,21.1971943 11.4850794,21.2471866 C11.5908565,21.4302336 11.7859647,21.5432515 11.9973755,21.543941 C12.2087863,21.5446243 12.4046243,21.4328757 12.5115878,21.2505194 C12.5358606,21.2248421 12.5560886,21.1956238 12.5715785,21.1638661 L14.3413057,18.2776444 L19.5271728,18.2776444 C21.4505179,18.2717628 23.0051321,16.7081968 22.9999854,14.7848496 L22.9999854,6.49612761 C23.005503,4.57208547 21.4512088,3.00734979 19.5271728,3 Z M5.8859427,13.2284229 C5.43283687,13.2464199 5.00321182,13.026553 4.75278408,12.6485123 L4.75278408,13.0884445 L3.39299374,13.0884445 L3.39299374,7.46597808 L4.7394528,7.46597808 L4.7394528,9.60564817 C5.0448375,9.29600394 5.45221845,9.10770868 5.8859427,9.07572988 C7.71232776,9.07572988 7.78231697,11.1320795 7.78231697,11.1320795 C7.81269384,11.6625126 7.62912694,12.1829789 7.272702,12.5769882 C6.91627706,12.9709975 6.41675661,13.2056489 5.8859427,13.2284229 L5.8859427,13.2284229 Z M10.1286219,9.45233848 L10.1286219,13.0884445 L8.8321551,13.0884445 L8.8321551,9.76229069 C8.8321551,8.61246797 8.2155835,8.64246335 8.2155835,8.64246335 L8.2155835,7.33933094 C10.1852798,7.33933094 10.1286219,9.45233848 10.1286219,9.45233848 L10.1286219,9.45233848 Z M15.5811145,11.1754061 C15.5811145,13.2250901 13.3047988,13.2284229 13.3047988,13.2284229 C11.0051534,13.2284229 11.0784754,11.1754061 11.0784754,11.1754061 C11.0784754,9.09239398 13.3047988,9.09239398 13.3047988,9.09239398 C15.6544365,9.09239398 15.5811145,11.1754061 15.5811145,11.1754061 L15.5811145,11.1754061 Z M20.6070063,13.0351194 C20.6491091,13.5820908 20.4599791,14.1216618 20.0855988,14.5226478 C19.7112185,14.9236338 19.1858809,15.1493049 18.63731,15.1447941 L18.1140573,15.1447941 L18.1140573,13.9483119 L18.4406736,13.9483119 C19.39386,13.9483119 19.2972082,12.9617974 19.2972082,12.9617974 L19.2972082,12.6485123 C18.9976846,12.985529 18.5647913,13.1733194 18.1140573,13.1617665 C16.2410128,13.1617665 16.2610052,11.1620749 16.2610052,11.1620749 C16.2610052,9.01240631 18.1673824,9.09239398 18.1673824,9.09239398 C18.6012719,9.08840039 19.0147734,9.27624474 19.2972082,9.60564817 L19.2972082,9.22903957 L20.6070063,9.22903957 L20.6070063,13.0351194 L20.6070063,13.0351194 Z M5.58932177,10.3088731 C5.11074877,10.3088731 4.72278871,10.6968331 4.72278871,11.1754061 C4.72278871,11.6539791 5.11074877,12.0419392 5.58932177,12.0419392 C6.06789476,12.0419392 6.45585483,11.6539791 6.45585483,11.1754061 C6.45585483,10.6968331 6.06789476,10.3088731 5.58932177,10.3088731 L5.58932177,10.3088731 Z" id="path-1"></path>
    </defs>
    <g id="Symbols" stroke="none" stroke-width="1" fill="none" fill-rule="evenodd">
        <g id="Common-/-Footer" transform="translate(-178.000000, -60.000000)">
            <g id="SNS-+-Info" transform="translate(70.000000, 60.000000)">
                <g id="SNS">
                    <g id="Icon-/-24-/-blog" transform="translate(108.000000, 0.000000)">
                        <rect id="container" x="0" y="0" width="24" height="24"></rect>
                        <mask id="mask-2" fill="white">
                            <use xlink:href="#path-1"></use>
                        </mask>
                        <use id="Mask" fill="#404040" xlink:href="#path-1"></use>
                        <g id="✱-/-Color-/-Grayscale-/-999-Black" mask="url(#mask-2)" fill="#000000" fill-rule="nonzero">
                            <rect id="Color" x="0" y="0" width="24" height="24"></rect>
                        </g>
                    </g>
                </g>
            </g>
        </g>
    </g>
</svg>